<svg id="Capa_1" data-name="Capa 1" xmlns="http://www.w3.org/2000/svg" viewBox="0 0 217.2 217.66"><defs><style>.cls-1{fill:#ecfffd;}.cls-2{fill:#11b4c9;}</style></defs><path class="cls-1" d="M16.4,233.37V213.16h6.81v14.92h9.13v5.29Z" transform="translate(-16.4 -16.17)"/><path class="cls-1" d="M43.74,233.83a10,10,0,0,1-7.25-2.51,9.36,9.36,0,0,1-2.6-7V213.16h6.82v10.91a5,5,0,0,0,.84,3.28,3.13,3.13,0,0,0,4.51,0,5.09,5.09,0,0,0,.83-3.28V213.16h6.69v11.11a9.35,9.35,0,0,1-2.59,7A10,10,0,0,1,43.74,233.83Z" transform="translate(-16.4 -16.17)"/><path class="cls-1" d="M56.7,233.37V213.16h6.82v20.21Z" transform="translate(-16.4 -16.17)"/><path class="cls-1" d="M74.34,233.83a20.43,20.43,0,0,1-4.91-.58,13.74,13.74,0,0,1-3.89-1.5l2.19-5A14.16,14.16,0,0,0,71,228.13a12.79,12.79,0,0,0,3.45.5,6.93,6.93,0,0,0,1.54-.13,1.78,1.78,0,0,0,.83-.37.8.8,0,0,0,.26-.59,1,1,0,0,0-.61-.87,6.35,6.35,0,0,0-1.6-.53l-2.18-.47a19.62,19.62,0,0,1-2.38-.65,9.52,9.52,0,0,1-2.2-1.06,5.08,5.08,0,0,1-1.6-1.75,5.5,5.5,0,0,1-.61-2.7,6,6,0,0,1,1.06-3.42,7.22,7.22,0,0,1,3.14-2.47,12.91,12.91,0,0,1,5.22-.92,18.93,18.93,0,0,1,4,.43,12.7,12.7,0,0,1,3.58,1.33l-2,4.93a15.51,15.51,0,0,0-2.9-1.12,10.62,10.62,0,0,0-2.73-.38,5.38,5.38,0,0,0-1.56.18,1.62,1.62,0,0,0-.82.46.89.89,0,0,0,.36,1.46,6.45,6.45,0,0,0,1.6.5c.66.14,1.39.28,2.19.43a18.77,18.77,0,0,1,2.39.64,9.53,9.53,0,0,1,2.17,1.07,5,5,0,0,1,1.61,1.73,5.37,5.37,0,0,1,.6,2.66,5.9,5.9,0,0,1-1,3.39,7.27,7.27,0,0,1-3.13,2.48A12.68,12.68,0,0,1,74.34,233.83Z" transform="translate(-16.4 -16.17)"/><path class="cls-2" d="M92.24,233.37l8.84-20.21h6.69l8.84,20.21h-7l-6.52-17h2.65l-6.52,17Zm5.25-3.52,1.74-4.91h9.29l1.74,4.91Z" transform="translate(-16.4 -16.17)"/><path class="cls-2" d="M127.9,233.83a12.88,12.88,0,0,1-4.52-.77,10.41,10.41,0,0,1-3.58-2.18,9.73,9.73,0,0,1-2.35-3.34,11.3,11.3,0,0,1,0-8.55,9.66,9.66,0,0,1,2.36-3.35,10.69,10.69,0,0,1,3.63-2.18,14.53,14.53,0,0,1,10,.25,10,10,0,0,1,3.88,2.88l-4.36,3.84a6.89,6.89,0,0,0-2.06-1.66,5.47,5.47,0,0,0-2.47-.56,5.74,5.74,0,0,0-2,.35,4.05,4.05,0,0,0-1.54,1,4.44,4.44,0,0,0-1,1.59,5.93,5.93,0,0,0-.35,2.1,6,6,0,0,0,.35,2.07,4.48,4.48,0,0,0,1,1.6,4.38,4.38,0,0,0,1.51,1,5,5,0,0,0,2,.36,6.65,6.65,0,0,0,2.25-.38,8.72,8.72,0,0,0,2.34-1.35l3.81,4.68a14.6,14.6,0,0,1-4.21,1.91A17.08,17.08,0,0,1,127.9,233.83Zm2.88-3.44v-7.68h5.92v8.55Z" transform="translate(-16.4 -16.17)"/><path class="cls-2" d="M149.29,233.83a10,10,0,0,1-7.25-2.51,9.36,9.36,0,0,1-2.6-7V213.16h6.82v10.91a5,5,0,0,0,.84,3.28,3.13,3.13,0,0,0,4.51,0,5.09,5.09,0,0,0,.83-3.28V213.16h6.69v11.11a9.35,9.35,0,0,1-2.59,7A10,10,0,0,1,149.29,233.83Z" transform="translate(-16.4 -16.17)"/><path class="cls-2" d="M162.25,233.37V213.16h6.82v20.21Z" transform="translate(-16.4 -16.17)"/><path class="cls-2" d="M172.36,233.37V213.16h6.81v14.92h9.12v5.29Z" transform="translate(-16.4 -16.17)"/><path class="cls-2" d="M188.26,233.37l8.84-20.21h6.7l8.83,20.21h-7l-6.53-17h2.66l-6.53,17Zm5.26-3.52,1.73-4.91h9.3l1.73,4.91Z" transform="translate(-16.4 -16.17)"/><path class="cls-2" d="M213.73,233.37V213.16h9.73a12,12,0,0,1,4.89.92,7,7,0,0,1,4.32,6.7,6.82,6.82,0,0,1-4.32,6.61,12.2,12.2,0,0,1-4.89.9h-6l3-2.8v7.88Zm6.81-7.13-3-3.09H223a3,3,0,0,0,2.1-.64,2.54,2.54,0,0,0,0-3.46,3,3,0,0,0-2.1-.64h-5.51l3-3.09Zm5.28,7.13-5-7.36h7.22l5,7.36Z" transform="translate(-16.4 -16.17)"/><line class="cls-1" x1="217.2" y1="187" x2="216.98" y2="187"/><path class="cls-1" d="M124.63,79.21,71.34,171.67h36l-18.16,31.5H16.82l-.11-.19L106.2,48l18.4-31.86,18.29,31.37Z" transform="translate(-16.4 -16.17)"/><path class="cls-1" d="M233.49,203l-.11.19H197.93L142.86,110,161,78.6Z" transform="translate(-16.4 -16.17)"/><line class="cls-1" x1="217.2" y1="187" x2="217.09" y2="186.81"/><line class="cls-1" x1="54.94" y1="155.5" x2="54.88" y2="155.5"/></svg>